<mxfile host="app.diagrams.net" modified="2021-10-15T17:23:53.263Z" agent="5.0 (Macintosh; Intel Mac OS X 10_15_7) AppleWebKit/537.36 (KHTML, like Gecko) Chrome/94.0.4606.71 Safari/537.36" etag="qg2lg3NnmLZLI_seEJdh" version="15.4.1" type="github">
  <diagram id="kgpKYQtTHZ0yAKxKKP6v" name="Page-1">
    <mxGraphModel dx="615" dy="289" grid="1" gridSize="10" guides="1" tooltips="1" connect="1" arrows="1" fold="1" page="1" pageScale="1" pageWidth="850" pageHeight="1100" math="0" shadow="0">
      <root>
        <mxCell id="0" />
        <mxCell id="1" parent="0" />
        <mxCell id="oCFvWuckjjxUo72c100m-10" value="loop" style="shape=umlFrame;whiteSpace=wrap;html=1;fontSize=10;" vertex="1" parent="1">
          <mxGeometry x="370" y="560" width="300" height="110" as="geometry" />
        </mxCell>
        <mxCell id="3nuBFxr9cyL0pnOWT2aG-8" value="start_client" style="verticalAlign=bottom;endArrow=block;entryX=0;entryY=0;shadow=0;strokeWidth=1;" parent="1" source="3nuBFxr9cyL0pnOWT2aG-2" target="3nuBFxr9cyL0pnOWT2aG-6" edge="1">
          <mxGeometry relative="1" as="geometry">
            <mxPoint x="200" y="160" as="sourcePoint" />
          </mxGeometry>
        </mxCell>
        <mxCell id="oCFvWuckjjxUo72c100m-1" value="supervisor3" style="shape=umlLifeline;perimeter=lifelinePerimeter;container=0;collapsible=0;recursiveResize=0;rounded=0;shadow=0;strokeWidth=1;" vertex="1" parent="1">
          <mxGeometry x="215" y="80" width="80" height="311" as="geometry" />
        </mxCell>
        <mxCell id="oCFvWuckjjxUo72c100m-2" value="" style="points=[];perimeter=orthogonalPerimeter;rounded=0;shadow=0;strokeWidth=1;" vertex="1" parent="1">
          <mxGeometry x="250" y="164" width="10" height="160" as="geometry" />
        </mxCell>
        <mxCell id="oCFvWuckjjxUo72c100m-11" value="[For all brod clients (app env)]" style="text;html=1;strokeColor=none;fillColor=none;align=center;verticalAlign=middle;whiteSpace=wrap;rounded=0;fontSize=10;" vertex="1" parent="1">
          <mxGeometry x="370" y="590" width="150" height="30" as="geometry" />
        </mxCell>
        <mxCell id="oCFvWuckjjxUo72c100m-14" value="start_link" style="verticalAlign=bottom;endArrow=block;shadow=0;strokeWidth=1;elbow=vertical;exitX=1.2;exitY=0.075;exitDx=0;exitDy=0;exitPerimeter=0;" edge="1" parent="1" source="oCFvWuckjjxUo72c100m-2" target="oCFvWuckjjxUo72c100m-13">
          <mxGeometry relative="1" as="geometry">
            <mxPoint x="590" y="160" as="sourcePoint" />
            <mxPoint x="760" y="160.0000000000001" as="targetPoint" />
          </mxGeometry>
        </mxCell>
        <mxCell id="oCFvWuckjjxUo72c100m-9" value="start_child" style="verticalAlign=bottom;endArrow=block;entryX=-0.1;entryY=0.039;shadow=0;strokeWidth=1;entryDx=0;entryDy=0;entryPerimeter=0;elbow=vertical;" edge="1" parent="1" target="oCFvWuckjjxUo72c100m-2">
          <mxGeometry x="235" y="80" as="geometry">
            <mxPoint x="175" y="171" as="sourcePoint" />
            <mxPoint x="460" y="170.0000000000001" as="targetPoint" />
          </mxGeometry>
        </mxCell>
        <mxCell id="oCFvWuckjjxUo72c100m-16" value="" style="group" vertex="1" connectable="0" parent="1">
          <mxGeometry x="135" y="80" width="70" height="300" as="geometry" />
        </mxCell>
        <mxCell id="3nuBFxr9cyL0pnOWT2aG-5" value="brod_sup" style="shape=umlLifeline;perimeter=lifelinePerimeter;container=0;collapsible=0;recursiveResize=0;rounded=0;shadow=0;strokeWidth=1;" parent="oCFvWuckjjxUo72c100m-16" vertex="1">
          <mxGeometry width="70" height="300" as="geometry" />
        </mxCell>
        <mxCell id="3nuBFxr9cyL0pnOWT2aG-6" value="" style="points=[];perimeter=orthogonalPerimeter;rounded=0;shadow=0;strokeWidth=1;" parent="oCFvWuckjjxUo72c100m-16" vertex="1">
          <mxGeometry x="30" y="80" width="10" height="160" as="geometry" />
        </mxCell>
        <mxCell id="3nuBFxr9cyL0pnOWT2aG-3" value="dispatch" style="verticalAlign=bottom;startArrow=oval;endArrow=block;startSize=8;shadow=0;strokeWidth=1;" parent="1" target="3nuBFxr9cyL0pnOWT2aG-2" edge="1">
          <mxGeometry x="45" y="80" as="geometry">
            <mxPoint x="30" y="150" as="sourcePoint" />
          </mxGeometry>
        </mxCell>
        <mxCell id="oCFvWuckjjxUo72c100m-18" value="" style="group" vertex="1" connectable="0" parent="1">
          <mxGeometry x="312" y="80" width="75" height="470" as="geometry" />
        </mxCell>
        <mxCell id="oCFvWuckjjxUo72c100m-12" value="brod_client" style="shape=umlLifeline;perimeter=lifelinePerimeter;container=0;collapsible=0;recursiveResize=0;rounded=0;shadow=0;strokeWidth=1;" vertex="1" parent="oCFvWuckjjxUo72c100m-18">
          <mxGeometry width="75" height="470" as="geometry" />
        </mxCell>
        <mxCell id="oCFvWuckjjxUo72c100m-13" value="" style="points=[];perimeter=orthogonalPerimeter;rounded=0;shadow=0;strokeWidth=1;" vertex="1" parent="oCFvWuckjjxUo72c100m-18">
          <mxGeometry x="32.5" y="95" width="10" height="225" as="geometry" />
        </mxCell>
        <mxCell id="oCFvWuckjjxUo72c100m-26" value="" style="points=[];perimeter=orthogonalPerimeter;rounded=0;shadow=0;strokeWidth=1;" vertex="1" parent="oCFvWuckjjxUo72c100m-18">
          <mxGeometry x="38.5" y="120" width="10" height="100" as="geometry" />
        </mxCell>
        <mxCell id="oCFvWuckjjxUo72c100m-19" value="" style="group" vertex="1" connectable="0" parent="1">
          <mxGeometry x="500" y="80" width="75" height="300" as="geometry" />
        </mxCell>
        <mxCell id="oCFvWuckjjxUo72c100m-20" value="gen_server" style="shape=umlLifeline;perimeter=lifelinePerimeter;container=0;collapsible=0;recursiveResize=0;rounded=0;shadow=0;strokeWidth=1;" vertex="1" parent="oCFvWuckjjxUo72c100m-19">
          <mxGeometry width="75" height="300" as="geometry" />
        </mxCell>
        <mxCell id="oCFvWuckjjxUo72c100m-21" value="" style="points=[];perimeter=orthogonalPerimeter;rounded=0;shadow=0;strokeWidth=1;" vertex="1" parent="oCFvWuckjjxUo72c100m-19">
          <mxGeometry x="32.5" y="95" width="10" height="125" as="geometry" />
        </mxCell>
        <mxCell id="oCFvWuckjjxUo72c100m-22" value="start_link" style="verticalAlign=bottom;endArrow=block;shadow=0;strokeWidth=1;elbow=vertical;exitX=1.079;exitY=0.061;exitDx=0;exitDy=0;exitPerimeter=0;entryX=-0.064;entryY=0.119;entryDx=0;entryDy=0;entryPerimeter=0;" edge="1" parent="1" source="oCFvWuckjjxUo72c100m-13" target="oCFvWuckjjxUo72c100m-21">
          <mxGeometry relative="1" as="geometry">
            <mxPoint x="410" y="186" as="sourcePoint" />
            <mxPoint x="520" y="189" as="targetPoint" />
          </mxGeometry>
        </mxCell>
        <mxCell id="oCFvWuckjjxUo72c100m-23" value="init" style="verticalAlign=bottom;endArrow=open;dashed=1;endSize=8;shadow=0;strokeWidth=1;exitX=-0.15;exitY=0.282;exitDx=0;exitDy=0;exitPerimeter=0;" edge="1" parent="1" source="oCFvWuckjjxUo72c100m-21">
          <mxGeometry relative="1" as="geometry">
            <mxPoint x="360" y="210" as="targetPoint" />
            <mxPoint x="430" y="210" as="sourcePoint" />
          </mxGeometry>
        </mxCell>
        <mxCell id="3nuBFxr9cyL0pnOWT2aG-1" value="brod" style="shape=umlLifeline;perimeter=lifelinePerimeter;container=0;collapsible=0;recursiveResize=0;rounded=0;shadow=0;strokeWidth=1;" parent="1" vertex="1">
          <mxGeometry x="75" y="80" width="40" height="300" as="geometry" />
        </mxCell>
        <mxCell id="3nuBFxr9cyL0pnOWT2aG-2" value="" style="points=[];perimeter=orthogonalPerimeter;rounded=0;shadow=0;strokeWidth=1;" parent="1" vertex="1">
          <mxGeometry x="90" y="150" width="10" height="190" as="geometry" />
        </mxCell>
        <mxCell id="oCFvWuckjjxUo72c100m-27" value="send" style="verticalAlign=bottom;endArrow=block;shadow=0;strokeWidth=1;elbow=vertical;entryX=-0.03;entryY=0.518;entryDx=0;entryDy=0;entryPerimeter=0;" edge="1" parent="1" target="oCFvWuckjjxUo72c100m-21">
          <mxGeometry relative="1" as="geometry">
            <mxPoint x="360" y="239" as="sourcePoint" />
            <mxPoint x="430" y="230" as="targetPoint" />
          </mxGeometry>
        </mxCell>
        <mxCell id="oCFvWuckjjxUo72c100m-28" value="handle_info" style="verticalAlign=bottom;endArrow=open;dashed=1;endSize=8;shadow=0;strokeWidth=1;exitX=0.05;exitY=0.749;exitDx=0;exitDy=0;exitPerimeter=0;" edge="1" parent="1" source="oCFvWuckjjxUo72c100m-21">
          <mxGeometry relative="1" as="geometry">
            <mxPoint x="360" y="270" as="targetPoint" />
            <mxPoint x="442.72" y="220.36" as="sourcePoint" />
          </mxGeometry>
        </mxCell>
        <mxCell id="oCFvWuckjjxUo72c100m-29" value="ensure_metadata_connection" style="verticalAlign=bottom;endArrow=block;shadow=0;strokeWidth=1;elbow=vertical;entryX=0.85;entryY=0.649;entryDx=0;entryDy=0;entryPerimeter=0;edgeStyle=entityRelationEdgeStyle;" edge="1" parent="1" target="oCFvWuckjjxUo72c100m-13">
          <mxGeometry x="-0.2972" y="50" relative="1" as="geometry">
            <mxPoint x="360" y="300" as="sourcePoint" />
            <mxPoint x="442.44000000000005" y="249.48000000000002" as="targetPoint" />
            <mxPoint as="offset" />
          </mxGeometry>
        </mxCell>
        <mxCell id="oCFvWuckjjxUo72c100m-31" value="" style="group" vertex="1" connectable="0" parent="1">
          <mxGeometry x="560" y="80" width="75" height="400" as="geometry" />
        </mxCell>
        <mxCell id="oCFvWuckjjxUo72c100m-32" value="kpro" style="shape=umlLifeline;perimeter=lifelinePerimeter;container=0;collapsible=0;recursiveResize=0;rounded=0;shadow=0;strokeWidth=1;" vertex="1" parent="oCFvWuckjjxUo72c100m-31">
          <mxGeometry x="17.5" width="40" height="400" as="geometry" />
        </mxCell>
        <mxCell id="oCFvWuckjjxUo72c100m-33" value="" style="points=[];perimeter=orthogonalPerimeter;rounded=0;shadow=0;strokeWidth=1;" vertex="1" parent="oCFvWuckjjxUo72c100m-31">
          <mxGeometry x="32.5" y="280" width="10" height="60" as="geometry" />
        </mxCell>
        <mxCell id="oCFvWuckjjxUo72c100m-35" value="connect_any" style="verticalAlign=bottom;endArrow=block;shadow=0;strokeWidth=1;elbow=vertical;exitX=1.01;exitY=0.82;exitDx=0;exitDy=0;exitPerimeter=0;entryX=0.09;entryY=-0.003;entryDx=0;entryDy=0;entryPerimeter=0;" edge="1" parent="1" source="oCFvWuckjjxUo72c100m-13" target="oCFvWuckjjxUo72c100m-33">
          <mxGeometry relative="1" as="geometry">
            <mxPoint x="360" y="360" as="sourcePoint" />
            <mxPoint x="590" y="360" as="targetPoint" />
          </mxGeometry>
        </mxCell>
        <mxCell id="oCFvWuckjjxUo72c100m-36" value="" style="group" vertex="1" connectable="0" parent="1">
          <mxGeometry x="614" y="80" width="150" height="400" as="geometry" />
        </mxCell>
        <mxCell id="oCFvWuckjjxUo72c100m-37" value="kpro_brokers" style="shape=umlLifeline;perimeter=lifelinePerimeter;container=0;collapsible=0;recursiveResize=0;rounded=0;shadow=0;strokeWidth=1;" vertex="1" parent="oCFvWuckjjxUo72c100m-36">
          <mxGeometry x="34.99999999999999" width="79.99999999999999" height="400" as="geometry" />
        </mxCell>
        <mxCell id="oCFvWuckjjxUo72c100m-38" value="" style="points=[];perimeter=orthogonalPerimeter;rounded=0;shadow=0;strokeWidth=1;" vertex="1" parent="oCFvWuckjjxUo72c100m-36">
          <mxGeometry x="64.99999999999999" y="280" width="19.999999999999996" height="60" as="geometry" />
        </mxCell>
        <mxCell id="oCFvWuckjjxUo72c100m-39" value="connect_any" style="verticalAlign=bottom;endArrow=block;shadow=0;strokeWidth=1;elbow=vertical;entryX=-0.1;entryY=0.163;entryDx=0;entryDy=0;entryPerimeter=0;exitX=1.01;exitY=0.163;exitDx=0;exitDy=0;exitPerimeter=0;" edge="1" parent="1" source="oCFvWuckjjxUo72c100m-33" target="oCFvWuckjjxUo72c100m-38">
          <mxGeometry x="0.0054" relative="1" as="geometry">
            <mxPoint x="610" y="370" as="sourcePoint" />
            <mxPoint x="603.4000000000001" y="369.81999999999994" as="targetPoint" />
            <mxPoint as="offset" />
          </mxGeometry>
        </mxCell>
        <mxCell id="oCFvWuckjjxUo72c100m-40" value="connect_any" style="verticalAlign=bottom;endArrow=block;shadow=0;strokeWidth=1;elbow=vertical;entryX=1.02;entryY=0.65;entryDx=0;entryDy=0;entryPerimeter=0;edgeStyle=entityRelationEdgeStyle;" edge="1" parent="1" target="oCFvWuckjjxUo72c100m-38">
          <mxGeometry x="-0.2462" y="10" relative="1" as="geometry">
            <mxPoint x="700" y="380" as="sourcePoint" />
            <mxPoint x="363" y="331.025" as="targetPoint" />
            <mxPoint as="offset" />
          </mxGeometry>
        </mxCell>
        <mxCell id="oCFvWuckjjxUo72c100m-44" value="start" style="verticalAlign=bottom;endArrow=block;shadow=0;strokeWidth=1;elbow=vertical;exitX=1.043;exitY=0.983;exitDx=0;exitDy=0;exitPerimeter=0;entryX=-0.017;entryY=-0.007;entryDx=0;entryDy=0;entryPerimeter=0;" edge="1" parent="1" source="oCFvWuckjjxUo72c100m-38" target="oCFvWuckjjxUo72c100m-43">
          <mxGeometry x="0.0054" relative="1" as="geometry">
            <mxPoint x="612.6000000000001" y="379.78" as="sourcePoint" />
            <mxPoint x="750" y="419" as="targetPoint" />
            <mxPoint as="offset" />
          </mxGeometry>
        </mxCell>
        <mxCell id="oCFvWuckjjxUo72c100m-41" value="" style="group" vertex="1" connectable="0" parent="1">
          <mxGeometry x="710" y="80" width="170" height="550" as="geometry" />
        </mxCell>
        <mxCell id="oCFvWuckjjxUo72c100m-42" value="kpro_connection" style="shape=umlLifeline;perimeter=lifelinePerimeter;container=0;collapsible=0;recursiveResize=0;rounded=0;shadow=0;strokeWidth=1;" vertex="1" parent="oCFvWuckjjxUo72c100m-41">
          <mxGeometry x="38.67" width="90.67" height="550" as="geometry" />
        </mxCell>
        <mxCell id="oCFvWuckjjxUo72c100m-43" value="" style="points=[];perimeter=orthogonalPerimeter;rounded=0;shadow=0;strokeWidth=1;" vertex="1" parent="oCFvWuckjjxUo72c100m-41">
          <mxGeometry x="76.83" y="340" width="16.33" height="180" as="geometry" />
        </mxCell>
        <mxCell id="oCFvWuckjjxUo72c100m-52" value="connect" style="verticalAlign=bottom;endArrow=block;shadow=0;strokeWidth=1;elbow=vertical;edgeStyle=entityRelationEdgeStyle;entryX=1.088;entryY=0.45;entryDx=0;entryDy=0;entryPerimeter=0;" edge="1" parent="oCFvWuckjjxUo72c100m-41" target="oCFvWuckjjxUo72c100m-43">
          <mxGeometry x="-0.2462" y="10" relative="1" as="geometry">
            <mxPoint x="95" y="400" as="sourcePoint" />
            <mxPoint x="100" y="440" as="targetPoint" />
            <mxPoint as="offset" />
          </mxGeometry>
        </mxCell>
        <mxCell id="oCFvWuckjjxUo72c100m-58" value="init_connection" style="verticalAlign=bottom;endArrow=block;shadow=0;strokeWidth=1;elbow=vertical;edgeStyle=entityRelationEdgeStyle;entryX=1.015;entryY=0.946;entryDx=0;entryDy=0;entryPerimeter=0;" edge="1" parent="oCFvWuckjjxUo72c100m-41" target="oCFvWuckjjxUo72c100m-43">
          <mxGeometry x="-0.3058" y="10" relative="1" as="geometry">
            <mxPoint x="100" y="490" as="sourcePoint" />
            <mxPoint x="190" y="490" as="targetPoint" />
            <mxPoint as="offset" />
          </mxGeometry>
        </mxCell>
        <mxCell id="oCFvWuckjjxUo72c100m-45" value="" style="group" vertex="1" connectable="0" parent="1">
          <mxGeometry x="830" y="80" width="110" height="460" as="geometry" />
        </mxCell>
        <mxCell id="oCFvWuckjjxUo72c100m-46" value="proc_lib" style="shape=umlLifeline;perimeter=lifelinePerimeter;container=0;collapsible=0;recursiveResize=0;rounded=0;shadow=0;strokeWidth=1;" vertex="1" parent="oCFvWuckjjxUo72c100m-45">
          <mxGeometry x="25.02" width="58.67" height="390" as="geometry" />
        </mxCell>
        <mxCell id="oCFvWuckjjxUo72c100m-47" value="" style="points=[];perimeter=orthogonalPerimeter;rounded=0;shadow=0;strokeWidth=1;" vertex="1" parent="oCFvWuckjjxUo72c100m-45">
          <mxGeometry x="47.03" y="350" width="14.67" height="30" as="geometry" />
        </mxCell>
        <mxCell id="oCFvWuckjjxUo72c100m-48" value="start" style="verticalAlign=bottom;endArrow=block;shadow=0;strokeWidth=1;elbow=vertical;entryX=-0.002;entryY=0.017;entryDx=0;entryDy=0;entryPerimeter=0;exitX=1.039;exitY=0.057;exitDx=0;exitDy=0;exitPerimeter=0;" edge="1" parent="1" source="oCFvWuckjjxUo72c100m-43" target="oCFvWuckjjxUo72c100m-47">
          <mxGeometry x="0.0054" relative="1" as="geometry">
            <mxPoint x="810" y="431" as="sourcePoint" />
            <mxPoint x="880" y="470" as="targetPoint" />
            <mxPoint as="offset" />
          </mxGeometry>
        </mxCell>
        <mxCell id="oCFvWuckjjxUo72c100m-51" value="init" style="verticalAlign=bottom;endArrow=open;dashed=1;endSize=8;shadow=0;strokeWidth=1;exitX=-0.029;exitY=0.98;exitDx=0;exitDy=0;exitPerimeter=0;entryX=0.966;entryY=0.219;entryDx=0;entryDy=0;entryPerimeter=0;" edge="1" parent="1" source="oCFvWuckjjxUo72c100m-47" target="oCFvWuckjjxUo72c100m-43">
          <mxGeometry relative="1" as="geometry">
            <mxPoint x="810" y="459" as="targetPoint" />
            <mxPoint x="533" y="278.625" as="sourcePoint" />
          </mxGeometry>
        </mxCell>
        <mxCell id="oCFvWuckjjxUo72c100m-53" value="" style="group" vertex="1" connectable="0" parent="1">
          <mxGeometry x="900" y="80" width="110" height="480" as="geometry" />
        </mxCell>
        <mxCell id="oCFvWuckjjxUo72c100m-54" value="gen_tcp" style="shape=umlLifeline;perimeter=lifelinePerimeter;container=0;collapsible=0;recursiveResize=0;rounded=0;shadow=0;strokeWidth=1;" vertex="1" parent="oCFvWuckjjxUo72c100m-53">
          <mxGeometry x="25.02" width="58.67" height="480" as="geometry" />
        </mxCell>
        <mxCell id="oCFvWuckjjxUo72c100m-55" value="" style="points=[];perimeter=orthogonalPerimeter;rounded=0;shadow=0;strokeWidth=1;" vertex="1" parent="oCFvWuckjjxUo72c100m-53">
          <mxGeometry x="47.67" y="440" width="14.67" height="30" as="geometry" />
        </mxCell>
        <mxCell id="oCFvWuckjjxUo72c100m-57" value="" style="verticalAlign=bottom;endArrow=open;dashed=1;endSize=8;shadow=0;strokeWidth=1;exitX=-0.029;exitY=0.98;exitDx=0;exitDy=0;exitPerimeter=0;entryX=1.015;entryY=0.666;entryDx=0;entryDy=0;entryPerimeter=0;" edge="1" parent="oCFvWuckjjxUo72c100m-53" target="oCFvWuckjjxUo72c100m-43">
          <mxGeometry x="0.0182" y="-10" relative="1" as="geometry">
            <mxPoint x="-26.32522000000006" y="460.02" as="targetPoint" />
            <mxPoint x="47.67457000000002" y="460" as="sourcePoint" />
            <mxPoint as="offset" />
          </mxGeometry>
        </mxCell>
        <mxCell id="oCFvWuckjjxUo72c100m-56" value="connect" style="verticalAlign=bottom;endArrow=block;shadow=0;strokeWidth=1;elbow=vertical;exitX=1.015;exitY=0.552;exitDx=0;exitDy=0;exitPerimeter=0;" edge="1" parent="1" source="oCFvWuckjjxUo72c100m-43">
          <mxGeometry x="0.0054" relative="1" as="geometry">
            <mxPoint x="820" y="520" as="sourcePoint" />
            <mxPoint x="950" y="520" as="targetPoint" />
            <mxPoint as="offset" />
          </mxGeometry>
        </mxCell>
      </root>
    </mxGraphModel>
  </diagram>
</mxfile>
